# xmcd
#
# Track frame offsets:
#	150
#	21452
#	37472
#	54975
#	69885
#	84052
#	100965
#	121670
#	136327
#	157215
#	171247
#
# Disc length: 2539 seconds
#
# Revision: 7
# Processed by: cddbd v1.5.1PL2 Copyright (c) Steve Scherf et al.
# Submitted via: dBpowerAMP V4.0
#
DISCID=9009e90b
DTITLE=Alabama - Dancin' on the Boulevard
DYEAR=1997
DGENRE=Country
TTITLE0=Dancin', Shaggin' on the Boulevard
TTITLE1=Sad Lookin' Moon
TTITLE2=Anytime (I'm Your Man)
TTITLE3=She's Got that Look in Her Eyes
TTITLE4=My Girl
TTITLE5=Of Course I'm Alright
TTITLE6=I Just Couldn't Say No
TTITLE7=Is the Magic Still There
TTITLE8=Calling all Angels
TTITLE9=Hey Baby
TTITLE10=One More Time Around
EXTD=
EXTT0=
EXTT1=
EXTT2=
EXTT3=
EXTT4=
EXTT5=
EXTT6=
EXTT7=
EXTT8=
EXTT9=
EXTT10=
PLAYORDER=
